<?xml version="1.0" standalone="no"?>
<!DOCTYPE svg PUBLIC "-//W3C//DTD SVG 20010904//EN"
 "http://www.w3.org/TR/2001/REC-SVG-20010904/DTD/svg10.dtd">
<svg version="1.0" xmlns="http://www.w3.org/2000/svg"
 width="80.000000pt" height="80.000000pt" viewBox="0 0 80.000000 80.000000"
 preserveAspectRatio="xMidYMid meet">
<metadata>
Created by potrace 1.14, written by Peter Selinger 2001-2017
</metadata>
<g transform="translate(0.000000,80.000000) scale(0.100000,-0.100000)"
fill="#000000" stroke="none">
<path d="M153 700 c-49 -20 -57 -86 -15 -125 35 -32 35 -64 0 -93 -36 -31 -37
-74 -3 -107 13 -14 35 -25 48 -25 34 0 132 -95 141 -136 15 -67 90 -90 132
-41 28 33 78 37 93 8 17 -30 64 -42 97 -25 35 19 44 31 44 65 0 36 -28 68 -67
75 -27 5 -37 1 -61 -23 -38 -38 -84 -42 -101 -9 -15 27 -60 40 -95 27 -20 -8
-29 -3 -68 37 -42 43 -45 50 -41 89 4 36 1 46 -21 66 -29 27 -35 74 -11 84 21
7 42 53 37 80 -4 26 -47 63 -71 62 -9 0 -26 -4 -38 -9z m61 -55 c8 -22 -4 -45
-24 -45 -23 0 -42 24 -34 44 8 20 50 21 58 1z m-3 -201 c17 -20 -1 -50 -27
-46 -26 5 -35 22 -23 44 12 22 32 23 50 2z m214 -224 c0 -20 -5 -25 -25 -25
-20 0 -26 6 -28 28 -3 26 -1 28 25 25 22 -2 28 -8 28 -28z m219 14 c7 -19 -10
-44 -29 -44 -19 0 -38 28 -31 45 7 20 52 19 60 -1z"/>
<path d="M365 698 c-49 -28 -56 -79 -17 -118 24 -23 35 -28 62 -24 29 5 39 0
81 -42 40 -40 48 -53 47 -82 -1 -27 5 -41 26 -59 35 -30 71 -29 101 2 52 51
14 130 -62 127 -32 -1 -45 5 -85 45 -39 39 -47 52 -43 74 9 53 -64 104 -110
77z m60 -68 c0 -18 -6 -26 -23 -28 -24 -4 -38 18 -28 44 3 9 15 14 28 12 17
-2 23 -10 23 -28z m214 -187 c21 -39 -29 -68 -53 -30 -7 11 -6 20 3 31 17 21
38 20 50 -1z"/>
<path d="M564 687 c-20 -17 -27 -33 -26 -56 1 -60 50 -90 107 -67 58 24 61
102 5 131 -39 20 -54 19 -86 -8z m79 -46 c10 -38 -46 -59 -58 -21 -8 27 1 40
29 40 15 0 26 -7 29 -19z"/>
<path d="M340 473 c-39 -50 -3 -122 63 -123 24 0 66 29 68 48 0 4 2 17 5 30 6
34 -36 72 -80 72 -26 0 -40 -7 -56 -27z m74 -19 c21 -8 20 -41 -1 -52 -26 -13
-43 -4 -43 23 0 13 6 26 13 28 6 3 13 6 14 6 1 1 8 -2 17 -5z"/>
<path d="M153 290 c-40 -16 -56 -77 -29 -112 35 -47 114 -36 133 19 12 34 2
65 -29 87 -25 18 -42 19 -75 6z m62 -64 c0 -29 -31 -44 -50 -25 -23 23 -9 51
24 47 18 -2 26 -9 26 -22z"/>
</g>
</svg>
